<svg width="20" height="20" viewBox="0 0 20 20" fill="none" xmlns="http://www.w3.org/2000/svg">
<path d="M6.16965 10.2014C6.94762 11.7919 8.23687 13.0753 9.8309 13.846C9.94753 13.9013 10.0765 13.9253 10.2052 13.9155C10.3339 13.9058 10.4579 13.8627 10.5648 13.7905L12.9119 12.2254C13.0157 12.1562 13.1352 12.114 13.2594 12.1026C13.3837 12.0911 13.5088 12.1109 13.6235 12.1601L18.0144 14.0419C18.1636 14.1053 18.2881 14.2154 18.3693 14.3557C18.4504 14.496 18.4838 14.6588 18.4643 14.8197C18.3255 15.9057 17.7956 16.9039 16.9739 17.6274C16.1521 18.3508 15.0948 18.7499 14 18.75C10.6185 18.75 7.37548 17.4067 4.98439 15.0156C2.5933 12.6245 1.25 9.38151 1.25 6C1.25006 4.90516 1.64918 3.84789 2.37264 3.02613C3.0961 2.20438 4.09428 1.67451 5.18028 1.53572C5.34117 1.51625 5.50403 1.54959 5.64432 1.63073C5.78461 1.71186 5.89473 1.83639 5.9581 1.98555L7.84158 6.38035C7.8903 6.49403 7.91015 6.61799 7.89936 6.74119C7.88858 6.8644 7.8475 6.98302 7.77977 7.0865L6.22011 9.4696C6.14912 9.57681 6.10716 9.70059 6.09831 9.82886C6.08947 9.95713 6.11405 10.0855 6.16965 10.2014V10.2014Z" stroke="#02A689" stroke-width="2" stroke-linecap="round" stroke-linejoin="round"/>
</svg>
