<svg width="15" height="15" viewBox="0 0 15 15" fill="none" xmlns="http://www.w3.org/2000/svg">
<path fill-rule="evenodd" clip-rule="evenodd" d="M10.4999 6.01402C10.4999 6.60496 10.3835 7.19013 10.1573 7.73609C9.93121 8.28206 9.59971 8.77813 9.18191 9.19602C8.76401 9.61382 8.26794 9.94532 7.72197 10.1715C7.17601 10.3976 6.59085 10.514 5.9999 10.514C5.40895 10.514 4.82379 10.3976 4.27782 10.1715C3.73186 9.94532 3.23578 9.61382 2.81792 9.19602C2.40005 8.77813 2.06859 8.28206 1.84244 7.73609C1.61629 7.19013 1.4999 6.60496 1.4999 6.01402C1.4999 4.82054 1.974 3.67595 2.81792 2.83204C3.66183 1.98812 4.80642 1.51402 5.9999 1.51402C7.19337 1.51402 8.33796 1.98812 9.18191 2.83204C10.0258 3.67595 10.4999 4.82054 10.4999 6.01402ZM9.67991 10.754C8.47428 11.69 6.95727 12.1313 5.4377 11.9881C3.91813 11.845 2.51024 11.1281 1.50065 9.98342C0.491052 8.83873 -0.0443482 7.35231 0.00343178 5.82677C0.0512218 4.30122 0.678602 2.85122 1.75785 1.77197C2.83711 0.692717 4.2871 0.0653365 5.81265 0.0175465C7.3382 -0.0302365 8.82461 0.505167 9.96931 1.51477C11.114 2.52436 11.8309 3.93225 11.974 5.45182C12.1172 6.97138 11.6759 8.48839 10.7399 9.69402L13.7799 12.734C13.8536 12.8027 13.9127 12.8855 13.9537 12.9775C13.9947 13.0695 14.0167 13.1688 14.0185 13.2695C14.0203 13.3702 14.0017 13.4702 13.964 13.5636C13.9263 13.657 13.8701 13.7418 13.7989 13.813C13.7277 13.8843 13.6429 13.9404 13.5495 13.9781C13.4561 14.0158 13.3561 14.0344 13.2554 14.0326C13.1547 14.0308 13.0553 14.0088 12.9634 13.9678C12.8714 13.9268 12.7886 13.8677 12.7199 13.794L9.67991 10.754Z" fill="#1F2A33"/>
</svg>
